<?xml version="1.0" standalone="no"?>
<!DOCTYPE svg PUBLIC "-//W3C//DTD SVG 20010904//EN"
 "http://www.w3.org/TR/2001/REC-SVG-20010904/DTD/svg10.dtd">
<svg version="1.0" xmlns="http://www.w3.org/2000/svg"
 width="900.000000pt" height="171.000000pt" viewBox="0 0 900.000000 171.000000"
 preserveAspectRatio="xMidYMid meet">
<metadata>
Created by potrace 1.10, written by Peter Selinger 2001-2011
</metadata>
<g transform="translate(0.000000,171.000000) scale(0.100000,-0.100000)"
fill="#000000" stroke="none">
<path d="M832 1205 c-24 -7 -51 -20 -60 -28 -9 -7 -39 -24 -65 -37 -29 -13
-52 -32 -58 -46 -5 -14 -18 -37 -30 -53 -20 -27 -20 -30 -5 -58 8 -17 25 -33
37 -36 19 -5 20 -9 10 -21 -8 -10 -35 -16 -74 -18 -55 -3 -59 -4 -37 -14 14
-7 33 -21 44 -33 23 -25 15 -29 -63 -33 -62 -3 -86 -28 -27 -28 35 0 55 -13
36 -25 -17 -11 -11 -42 10 -48 11 -3 19 -11 18 -18 -2 -9 24 -16 83 -24 48 -7
91 -15 96 -18 16 -10 154 -38 228 -47 39 -4 88 -15 109 -25 l39 -16 -21 -21
c-14 -15 -38 -23 -74 -26 -46 -3 -59 0 -98 27 -44 30 -47 31 -168 31 -94 0
-132 -4 -158 -16 -39 -19 -41 -29 -14 -64 26 -33 25 -40 -4 -40 -30 0 -42 -15
-20 -24 9 -3 39 -6 67 -7 29 -1 63 -4 77 -8 19 -6 7 -10 -53 -19 -43 -7 -87
-12 -97 -12 -11 0 -20 -4 -20 -9 0 -10 35 -21 70 -21 14 0 50 -10 80 -21 30
-12 69 -24 85 -26 17 -3 37 -12 46 -19 29 -25 179 -39 273 -26 45 7 99 12 120
12 30 0 45 7 73 35 36 36 36 55 2 55 -10 0 -19 4 -19 8 0 18 344 30 354 13 9
-13 -20 -21 -79 -21 -59 0 -82 -16 -38 -26 49 -10 53 -13 50 -36 -2 -23 -2
-23 154 -26 l156 -2 17 24 c17 27 13 33 -32 46 -23 6 -19 8 28 14 30 4 86 6
125 4 64 -3 70 -5 75 -27 10 -42 81 -59 245 -60 140 -1 200 10 136 24 -34 7
-45 20 -46 50 0 14 -9 22 -30 26 -22 5 -13 7 33 8 60 1 62 2 62 27 0 19 -8 28
-37 40 l-37 16 24 18 c27 21 21 27 -35 32 -62 6 -22 23 58 24 114 1 117 0 117
-45 0 -22 6 -44 15 -51 8 -7 15 -18 15 -24 0 -13 53 -56 69 -56 6 0 14 -6 18
-14 20 -33 123 -75 219 -87 104 -14 249 -2 309 26 17 8 37 16 45 19 39 16 76
45 89 72 8 16 17 31 21 34 3 3 20 31 38 62 24 43 32 70 32 106 0 52 24 137 46
163 20 22 18 28 -12 39 -22 9 -24 13 -14 25 10 12 10 19 -2 33 -9 9 -19 44
-23 77 -5 48 -15 70 -46 113 -22 28 -43 52 -47 52 -4 0 -26 18 -50 39 -70 63
-132 81 -279 81 -98 0 -140 -4 -194 -21 -38 -12 -72 -25 -75 -30 -3 -5 -14 -9
-24 -9 -23 0 -78 -45 -91 -74 -5 -12 -13 -28 -18 -36 -42 -74 -54 -110 -48
-145 5 -31 2 -41 -20 -61 -25 -23 -25 -25 -8 -44 15 -17 17 -31 12 -89 -3 -43
-2 -72 5 -79 6 -6 8 -18 4 -27 -4 -12 -17 -15 -53 -13 -53 3 -61 20 -13 28 49
8 40 25 -15 28 -73 4 -81 8 -60 32 20 22 14 50 -13 57 -21 5 -45 40 -37 53 4
6 15 10 25 10 11 0 24 9 30 20 6 11 21 20 33 20 21 1 22 1 2 12 -11 7 -26 18
-33 25 -8 7 -35 13 -62 13 -27 0 -51 4 -55 10 -8 14 49 40 88 40 22 0 43 8 61
25 33 30 33 45 1 45 -15 0 -31 9 -40 23 -8 13 -27 29 -41 36 -31 14 -27 21 17
30 29 6 34 12 45 54 7 26 9 49 5 51 -13 8 -135 8 -231 -1 l-95 -8 -14 -47
c-12 -41 -18 -48 -40 -48 -14 0 -33 -5 -41 -11 -13 -9 -13 -11 0 -16 8 -4 27
-19 42 -35 15 -16 36 -28 51 -28 14 0 28 -3 31 -8 10 -16 -45 -54 -86 -59 -24
-3 -60 -14 -80 -24 -54 -28 -196 -27 -229 1 l-24 19 63 1 c50 0 65 4 80 20 9
11 27 31 40 45 l24 24 -39 7 c-21 4 -55 16 -76 27 -44 23 -35 37 25 37 45 0
54 12 33 44 -21 31 -12 46 25 46 29 0 48 14 32 24 -9 5 -242 -8 -349 -20 -41
-5 -53 -10 -53 -23 0 -9 5 -22 11 -28 21 -21 2 -43 -38 -43 -63 0 -71 -15 -22
-38 24 -11 52 -23 62 -26 36 -11 8 -77 -40 -91 -17 -5 -32 4 -68 38 -25 24
-45 51 -45 60 0 9 -17 28 -39 42 -21 14 -43 36 -49 49 -11 25 -67 56 -104 56
-12 1 -34 7 -48 15 -33 19 -257 19 -318 0z m236 -265 c11 -19 23 -20 171 -20
122 0 161 -3 170 -14 6 -7 26 -16 44 -19 18 -3 50 -12 72 -21 38 -16 38 -16
19 -37 -10 -12 -29 -25 -42 -30 -18 -7 -21 -14 -16 -33 5 -23 2 -25 -38 -31
-23 -3 -70 -5 -103 -3 l-60 3 3 33 c2 31 1 32 -35 33 -21 1 -49 4 -63 9 -25 7
-25 7 8 16 54 15 41 28 -43 40 -142 21 -157 25 -149 43 3 9 9 24 11 34 7 23
35 22 51 -3z m1948 5 c10 -8 27 -15 37 -15 21 0 58 -79 50 -108 -3 -14 1 -21
16 -25 27 -7 27 -30 -1 -67 -11 -16 -22 -42 -24 -57 -10 -99 -37 -143 -86
-143 -74 0 -108 59 -108 186 0 77 -2 86 -20 91 -26 7 -25 16 2 28 15 7 26 26
34 59 7 27 19 53 26 57 20 13 52 11 74 -6z m-2293 -222 c-13 -2 -35 -2 -50 0
-16 2 -5 4 22 4 28 0 40 -2 28 -4z m824 -9 c4 -10 -1 -22 -10 -29 -33 -24 -19
-35 43 -35 47 0 60 -3 60 -15 0 -10 -10 -15 -33 -15 -21 0 -41 -8 -51 -19 -11
-12 -31 -19 -51 -19 -30 0 -38 6 -59 43 -27 46 -63 65 -123 65 -20 0 -32 4
-28 10 3 6 48 10 100 10 52 0 97 4 100 10 10 16 45 12 52 -6z m697 -135 c16
-15 -18 -20 -115 -17 -81 3 -94 5 -97 21 -3 17 4 18 100 11 57 -3 107 -10 112
-15z m-694 -32 c0 -8 -11 -19 -25 -25 -27 -13 -35 -52 -10 -52 8 0 15 -4 15
-10 0 -6 -32 -10 -76 -10 -50 0 -73 4 -69 11 4 5 21 9 38 7 30 -3 32 -1 35 32
1 19 5 41 7 48 6 17 85 16 85 -1z m443 1 c12 -7 40 -15 62 -18 39 -6 42 -10
30 -41 -4 -10 4 -19 27 -30 22 -9 33 -21 33 -34 0 -19 -6 -20 -170 -17 -93 2
-174 8 -179 13 -11 10 5 17 48 21 35 4 47 27 17 35 -28 7 -27 11 12 50 35 35
80 43 120 21z m325 -155 c-10 -2 -28 -2 -40 0 -13 2 -5 4 17 4 22 1 32 -1 23
-4z"/>
<path d="M3534 1211 c-2 -2 -4 -27 -4 -54 0 -35 -5 -53 -17 -62 -15 -11 -15
-13 5 -24 17 -9 21 -18 16 -37 -4 -17 -1 -31 12 -45 22 -25 11 -37 -39 -41
-53 -4 -47 -22 10 -28 57 -6 73 -15 73 -40 0 -21 -18 -30 -63 -31 -20 -1 -24
-3 -12 -6 11 -2 30 -6 43 -9 30 -6 28 -18 -5 -33 l-28 -13 33 -26 c25 -21 32
-35 33 -62 0 -19 6 -48 13 -65 11 -25 10 -32 -2 -41 -21 -15 -8 -44 19 -44 16
0 19 -3 11 -12 -11 -14 -28 -97 -23 -113 10 -31 4 -40 -27 -45 -49 -8 -43 -21
11 -25 58 -3 65 -9 44 -33 -10 -10 -14 -22 -10 -25 3 -4 63 -7 132 -7 106 0
131 3 168 21 24 11 43 24 43 29 0 10 -36 20 -73 20 -16 0 -26 4 -23 9 3 5 15
7 25 4 23 -6 61 13 61 30 0 7 18 29 40 50 22 20 40 46 40 57 0 15 7 20 29 20
17 0 33 5 36 10 3 6 14 10 23 10 15 -1 15 -2 -2 -15 -14 -10 -16 -18 -9 -27 6
-7 14 -38 18 -68 4 -30 12 -61 18 -68 8 -10 5 -14 -11 -19 -26 -7 -28 -21 -4
-30 9 -4 22 -13 27 -20 8 -11 40 -13 140 -11 127 3 130 4 133 26 2 13 14 27
28 32 13 5 24 18 24 28 0 10 9 37 20 60 11 22 19 51 17 63 -1 16 4 24 21 28
30 8 30 24 0 31 -22 6 -23 10 -21 84 1 43 6 83 12 89 14 14 91 -9 91 -28 0
-19 19 -29 52 -27 36 3 44 -17 24 -56 -12 -24 -24 -31 -51 -34 -51 -4 -48 -22
5 -28 l45 -5 -3 -42 c-3 -36 0 -44 27 -64 17 -13 31 -30 31 -40 0 -25 20 -29
137 -29 94 0 104 -2 101 -17 -3 -13 -14 -18 -43 -19 -22 0 -71 -2 -108 -2 -76
-2 -86 -22 -11 -22 25 0 73 -9 107 -21 90 -31 197 -36 293 -14 43 10 96 17
117 16 21 -2 37 2 37 8 0 6 -11 11 -25 11 -14 0 -25 5 -25 10 0 7 48 10 138 8
112 -2 136 -6 134 -17 -6 -26 22 -31 169 -31 l145 0 22 39 c38 67 56 74 216
73 l141 -1 -4 -33 c-9 -80 -24 -73 151 -76 l156 -2 19 37 c22 47 47 51 128 23
33 -12 74 -24 90 -27 17 -3 37 -12 46 -19 29 -25 179 -39 273 -26 45 7 99 12
120 12 31 0 44 7 72 37 35 38 36 53 3 53 -10 0 -19 4 -19 9 0 10 244 26 260
16 8 -5 7 -11 -2 -22 -10 -12 -8 -18 12 -33 29 -22 20 -28 -53 -32 -26 -2 -48
-7 -50 -13 -1 -6 127 -11 366 -13 315 -2 371 0 390 13 12 9 43 15 73 15 61 0
72 8 42 32 -20 15 -21 19 -8 28 8 5 15 20 15 32 0 20 6 24 48 28 64 7 60 24
-8 30 -84 8 -72 25 20 28 108 3 122 11 50 29 -38 9 -157 18 -329 24 -149 5
-274 13 -279 18 -5 5 6 17 26 30 32 19 48 21 220 21 158 0 188 2 202 16 10 10
13 23 9 33 -14 34 -16 73 -4 96 15 29 -1 80 -31 95 -10 6 -93 10 -186 10
l-168 1 -16 34 c-9 19 -14 37 -11 40 3 3 94 5 203 5 198 0 249 7 249 34 0 15
62 56 86 56 8 0 14 4 14 9 0 13 -39 21 -70 14 -35 -7 -45 8 -45 71 0 79 10 77
-389 77 -190 0 -351 0 -356 -1 -7 0 -10 -27 -8 -72 l3 -73 48 -3 c48 -3 61
-15 30 -26 -43 -15 -73 -38 -73 -55 0 -9 -6 -23 -12 -29 -10 -10 -10 -17 -1
-31 7 -12 9 -30 4 -47 -4 -16 -4 -41 1 -56 7 -18 6 -39 -2 -62 -8 -25 -8 -46
-1 -73 15 -54 15 -55 -24 -82 -19 -13 -32 -27 -29 -32 3 -5 31 -9 62 -9 70 0
102 -8 102 -26 0 -19 -19 -28 -73 -34 -59 -6 -62 -24 -5 -28 120 -8 75 -32
-57 -31 -100 0 -156 11 -125 23 8 3 24 4 35 3 18 -2 20 5 23 75 3 72 1 79 -26
109 -24 27 -37 33 -86 37 -86 7 -48 22 57 22 67 0 88 3 84 13 -3 9 -28 11 -93
9 -102 -3 -126 6 -106 39 18 28 10 34 -46 31 -63 -2 -89 14 -38 23 43 9 43 29
0 33 -41 4 -187 32 -197 39 -4 3 -1 13 8 23 9 10 14 24 10 29 -3 7 2 11 14 11
11 0 25 -9 31 -20 10 -19 21 -20 163 -20 118 1 156 4 171 15 11 8 28 15 37 15
32 0 29 18 -6 39 -25 14 -35 28 -35 44 0 17 -12 33 -41 53 -23 15 -45 38 -49
50 -8 21 -21 27 -147 69 -77 25 -303 18 -352 -10 -18 -11 -55 -31 -81 -45 -61
-33 -80 -49 -80 -68 0 -9 -9 -26 -21 -38 -16 -17 -19 -29 -14 -54 4 -17 13
-33 21 -36 47 -14 47 -14 34 -29 -9 -10 -33 -15 -79 -16 -58 0 -63 -2 -41 -12
29 -14 60 -43 60 -57 0 -5 -29 -10 -65 -12 -65 -3 -90 -20 -38 -26 52 -5 58
-10 37 -33 -19 -21 -19 -22 4 -36 12 -9 22 -21 22 -28 0 -13 51 -25 110 -25
19 0 55 -6 80 -14 72 -23 184 -46 226 -46 49 0 134 -30 134 -47 0 -20 -55 -43
-103 -43 -34 0 -53 7 -82 30 -38 30 -38 30 -167 30 -105 0 -136 -3 -159 -17
-33 -19 -35 -31 -14 -59 21 -27 18 -42 -7 -46 -40 -5 -20 -23 29 -25 27 -2 68
-6 93 -10 l45 -7 -75 -12 c-83 -14 -138 -6 -169 25 -10 10 -28 44 -40 76 l-21
56 20 26 c26 34 25 43 -5 43 -20 0 -25 6 -30 38 -7 45 -41 116 -73 155 -10 11
-9 17 3 27 25 21 6 30 -65 30 -80 0 -100 6 -100 29 0 33 43 61 93 61 55 0 62
17 20 50 -20 15 -28 31 -29 55 -1 31 2 34 30 37 35 3 43 31 11 36 -11 2 -29
15 -40 29 -21 25 -23 25 -179 27 -135 1 -163 -2 -187 -16 -33 -20 -37 -33 -11
-43 16 -6 16 -7 -2 -21 -11 -8 -35 -14 -53 -14 -22 0 -33 -5 -33 -14 0 -8 -8
-22 -17 -31 -14 -14 -14 -21 -4 -37 6 -10 9 -28 6 -39 -5 -16 -16 -19 -61 -19
-43 0 -64 -6 -104 -31 -46 -28 -56 -31 -105 -24 -30 3 -55 10 -55 15 0 5 19
13 43 18 30 7 35 10 16 11 -20 1 -30 9 -40 32 -19 48 -56 86 -93 99 -19 6 -44
26 -59 47 -37 52 -118 72 -294 72 -133 1 -152 -3 -235 -45 -14 -8 -37 -14 -51
-14 -13 0 -30 -7 -37 -15 -7 -8 -21 -15 -31 -15 -22 0 -30 -12 -20 -29 9 -14
-7 -70 -27 -94 -14 -17 -10 -21 31 -31 15 -3 27 -11 27 -16 0 -6 9 -10 20 -10
21 0 27 -15 10 -25 -20 -12 -9 -34 18 -37 44 -5 27 -23 -25 -26 -61 -3 -110
-29 -122 -63 -8 -24 -15 -27 -68 -31 -72 -5 -107 3 -111 25 -3 14 6 17 55 18
32 1 49 4 38 6 -25 6 -35 21 -35 51 0 15 -6 22 -19 22 -30 0 -36 20 -12 37 12
8 29 23 39 32 9 10 26 21 37 25 20 7 20 7 0 22 -13 10 -19 24 -17 39 2 17 -1
25 -12 25 -27 0 -28 20 -2 30 16 6 26 17 26 30 0 11 5 29 12 39 26 42 9 48
-134 47 -122 -2 -136 -4 -166 -24 -18 -13 -33 -30 -33 -38 -1 -8 -2 -19 -3
-26 0 -7 -11 -17 -24 -24 -35 -17 -37 -23 -8 -34 22 -8 25 -14 20 -34 -4 -17
0 -27 13 -35 10 -6 13 -11 7 -11 -6 0 -23 -11 -39 -25 -22 -21 -30 -24 -42
-13 -8 7 -19 22 -24 35 -8 21 -14 23 -90 23 -65 0 -86 -4 -110 -20 -38 -28
-29 -52 19 -48 47 4 50 -13 7 -34 -31 -16 -38 -16 -76 -3 -23 8 -59 15 -80 15
-53 0 -59 18 -7 22 39 3 43 5 40 28 -2 14 -5 40 -6 59 -2 19 -11 40 -21 47
-16 12 -17 14 -2 20 12 4 17 18 17 44 0 62 -28 73 -188 74 -74 1 -136 -1 -138
-3z m1839 -306 c-4 -16 -215 -13 -221 3 -3 10 21 12 110 10 69 -2 112 -7 111
-13z m420 -39 c14 -21 14 -26 2 -36 -8 -7 -15 -19 -15 -27 0 -8 -7 -28 -16
-45 -11 -22 -13 -33 -5 -41 17 -17 13 -34 -9 -40 -14 -4 -20 -14 -20 -34 0
-19 -11 -39 -35 -62 -20 -19 -35 -44 -35 -57 0 -12 -4 -26 -10 -29 -15 -9 -12
-47 5 -69 24 -32 2 -46 -76 -46 -37 0 -70 4 -74 10 -3 5 3 18 15 30 11 11 20
32 20 47 0 15 11 39 26 54 26 27 26 27 4 34 -17 6 -20 12 -15 36 l7 29 -101 0
c-55 0 -102 4 -105 9 -3 5 -63 12 -133 16 -76 4 -139 13 -155 21 -15 8 -41 14
-58 14 -27 0 -31 3 -28 23 2 17 -4 24 -27 32 -43 14 -37 29 15 35 34 4 47 11
56 29 7 13 25 32 40 42 26 17 50 19 220 19 152 0 194 3 210 15 14 11 51 14
150 15 128 0 132 -1 147 -24z m342 14 c8 -13 -20 -24 -41 -16 -20 8 -9 26 16
26 10 0 22 -5 25 -10z m-1895 -25 c0 -8 -7 -15 -15 -15 -26 0 -18 20 13 29 1
1 2 -6 2 -14z m1896 -42 c3 -10 10 -25 15 -33 21 -34 29 -63 23 -86 -5 -20
-12 -24 -45 -24 -34 0 -41 4 -50 27 -7 20 -7 40 2 73 16 58 44 80 55 43z m662
-90 c-16 -2 -40 -2 -55 0 -16 2 -3 4 27 4 30 0 43 -2 28 -4z m-1588 -118 c0
-8 -4 -15 -9 -15 -5 0 -14 -13 -20 -30 -11 -34 -22 -36 -81 -15 -23 8 -55 15
-70 15 -37 0 -61 10 -54 21 3 5 20 9 38 9 19 0 39 7 46 15 9 11 32 15 81 15
55 0 69 -3 69 -15z"/>
<path d="M4628 933 c18 -2 45 -2 60 0 15 2 0 4 -33 4 -33 0 -45 -2 -27 -4z"/>
</g>
</svg>
